<?xml version="1.0" encoding="UTF-8" standalone="no"?>
<!DOCTYPE svg PUBLIC "-//W3C//DTD SVG 1.1//EN" "http://www.w3.org/Graphics/SVG/1.1/DTD/svg11.dtd">
<svg width="100%" height="100%" viewBox="0 0 516 100" version="1.1" xmlns="http://www.w3.org/2000/svg" xmlns:xlink="http://www.w3.org/1999/xlink" xml:space="preserve" xmlns:serif="http://www.serif.com/" style="fill-rule:evenodd;clip-rule:evenodd;stroke-linecap:round;stroke-linejoin:round;stroke-miterlimit:1.5;">
    <g transform="matrix(1,0,0,1,-1149.16,-1161.06)">
        <g>
            <g transform="matrix(0.219506,0,0,0.219506,1094.91,1125.79)">
                <g transform="matrix(0.939093,0,0,0.939093,39.3233,40.1809)">
                    <circle cx="546.787" cy="395.143" r="188.83" style="fill:rgb(213,185,178);stroke:black;stroke-width:13.31px;"/>
                </g>
                <g transform="matrix(0.269557,0,0,0.269557,147.754,6.1855)">
                    <path d="M1001.6,1065.15C1001.6,1065.15 1083.47,1061.05 1104.76,1065.15C1116.15,1067.35 1118.1,1087.01 1129.37,1089.76C1146.17,1093.86 1187.68,1094.96 1205.58,1089.76C1219.7,1085.66 1224.31,1063.77 1236.78,1058.57C1249.24,1053.37 1273.08,1052.44 1280.35,1058.57C1287.61,1064.69 1274.42,1084.6 1280.35,1095.33C1287.9,1109.01 1310.74,1133.09 1325.65,1140.64C1338.79,1147.29 1362.47,1129.12 1369.84,1140.64C1377.2,1152.16 1380.69,1189.43 1369.84,1209.74C1356.61,1234.49 1311.41,1275.89 1290.45,1289.12C1277.39,1297.37 1256.96,1280.56 1244.1,1289.12C1220.98,1304.51 1177.25,1366.07 1151.76,1381.46C1134.47,1391.9 1107.21,1375.52 1091.17,1381.46C1075.41,1387.3 1061.46,1403.8 1055.52,1417.1C1049.58,1430.41 1049.86,1448.28 1055.52,1461.3C1061.18,1474.33 1078.06,1489.6 1089.48,1495.26C1099.8,1500.38 1114.26,1489.16 1124.02,1495.26C1139.36,1504.84 1155.87,1543.95 1181.5,1552.74C1209.44,1562.32 1266.36,1545.79 1291.67,1552.74C1310.64,1557.95 1320.56,1587.52 1333.4,1594.47C1343.75,1600.08 1358.8,1588.12 1368.7,1594.47C1385.1,1604.99 1412.93,1647.06 1431.81,1657.58C1446.42,1665.72 1468.62,1652.58 1481.98,1657.58C1495.22,1662.53 1506.97,1676.86 1511.96,1687.56C1516.79,1697.89 1517.74,1711.93 1511.96,1721.76C1503.86,1735.57 1471.45,1754.14 1463.35,1770.38C1456.09,1784.93 1470.27,1804.46 1463.35,1819.18C1456.14,1834.52 1427.32,1848.45 1420.12,1862.42C1413.91,1874.44 1427.88,1891.93 1420.12,1903.01C1404.23,1925.66 1340.66,1967.57 1324.78,1998.35C1311.12,2024.8 1330.48,2072.77 1324.78,2087.65C1320.69,2098.31 1300.75,2092.76 1290.54,2087.65C1279.12,2081.94 1258.2,2069.43 1256.27,2053.39C1250.56,2006 1272.51,1861.24 1256.27,1803.32C1243.87,1759.1 1175.08,1732.71 1158.85,1705.9C1147.89,1687.8 1155.2,1656.65 1158.85,1642.43C1161.41,1632.44 1177.08,1629.03 1180.73,1620.54C1184.38,1612.06 1186.07,1599.57 1180.73,1591.49C1171.29,1577.21 1142.39,1544.27 1124.07,1534.83C1108.28,1526.69 1085.24,1545.15 1070.78,1534.83C1039.73,1512.66 959.931,1430.69 937.761,1401.81C929.587,1391.16 943.399,1373.72 937.761,1361.54C931.979,1349.04 908.852,1340.82 903.071,1326.85C897.289,1312.87 896.92,1292.05 903.071,1277.71C909.222,1263.37 934.683,1257.38 939.976,1240.8C946.127,1221.55 941.427,1175.27 939.976,1162.16C939.657,1159.28 931.269,1162.16 931.269,1162.16C951.796,1127.68 975.368,1095.21 1001.6,1065.15ZM2151.56,1380.4C2151.56,1380.4 2089.17,1386.13 2069.82,1380.4C2054.28,1375.8 2043.5,1349.43 2035.44,1346.03C2029.39,1343.46 2018.65,1354.04 2021.49,1359.98C2025.75,1368.89 2050.49,1392.91 2061.01,1399.49C2067.66,1403.66 2077.54,1395.99 2084.57,1399.49C2092.41,1403.4 2112.5,1412.84 2108.03,1422.95C2101.84,1436.96 2062.42,1473.47 2047.41,1483.57C2039.29,1489.04 2026.45,1488.55 2018.02,1483.57C2006.04,1476.49 1982.62,1452.89 1975.54,1441.1C1970.69,1433.01 1980.6,1420.77 1975.54,1412.81C1967.36,1399.9 1938.47,1368.01 1926.42,1363.68C1916.16,1360 1901.1,1376.93 1903.28,1386.83C1905.46,1396.72 1933.47,1411.98 1939.5,1423.05C1944.32,1431.89 1933.97,1444.85 1939.5,1453.26C1949.18,1467.97 1978.92,1501.65 1997.57,1511.33C2013.51,1519.6 2042.45,1504.49 2051.43,1511.33C2060.4,1518.17 2059,1540.99 2051.43,1552.39C2037.88,1572.78 1983.69,1604.26 1970.15,1633.67C1956.87,1662.49 1977.69,1705.45 1970.15,1728.86C1963.6,1749.17 1932.42,1760.43 1924.87,1774.13C1918.93,1784.93 1931.42,1800.65 1924.87,1811.09C1914.52,1827.6 1879.73,1862.84 1862.77,1873.19C1851.49,1880.08 1833.97,1877.43 1823.13,1873.19C1812.29,1868.96 1801.18,1859.24 1797.7,1847.77C1793.47,1833.8 1802.7,1804.12 1797.7,1789.39C1793.16,1776.01 1772.72,1769.82 1767.72,1759.41C1763.04,1749.64 1764.83,1735.23 1767.72,1726.92C1770.41,1719.19 1783.17,1717.52 1785.08,1709.57C1787.97,1697.49 1790.62,1669.19 1785.08,1654.46C1779.55,1639.79 1757.37,1634.56 1751.82,1621.21C1746.28,1607.86 1757.88,1588.21 1751.82,1574.35C1745.77,1560.49 1727.1,1544.09 1715.51,1538.03C1705.69,1532.91 1690.79,1535.07 1682.3,1538.03C1674.39,1540.79 1672.62,1553.64 1664.53,1555.8C1653.41,1558.76 1629.9,1563.63 1615.59,1555.8C1597.56,1545.93 1566.26,1520.16 1556.39,1496.6C1546.53,1473.04 1546.49,1438.03 1556.39,1414.43C1566.3,1390.84 1605.92,1369.1 1615.82,1355C1620.64,1348.15 1610.59,1334.05 1615.82,1329.86C1621.05,1325.67 1638,1334.85 1647.19,1329.86C1658.62,1323.67 1667.93,1298.79 1684.36,1292.7C1701.08,1286.51 1736.98,1288.8 1747.51,1292.7C1754.82,1295.41 1743.83,1309.22 1747.51,1316.1C1751.99,1324.49 1761.92,1340.83 1774.41,1343.01C1800.15,1347.5 1876.65,1347.05 1901.95,1343.01C1913.24,1341.21 1922.16,1326.76 1926.21,1318.75C1929.78,1311.67 1933.54,1297.98 1926.21,1294.96C1916.58,1291 1878.06,1298.49 1868.43,1294.96C1861.81,1292.54 1874.81,1276.82 1868.43,1273.81C1860.97,1270.28 1836.65,1281.1 1823.62,1273.81C1806.67,1264.33 1779.85,1222.78 1766.75,1216.93C1757.37,1212.75 1754.66,1235.36 1744.96,1238.72C1734.47,1242.35 1715.92,1232.31 1703.79,1238.72C1689.25,1246.39 1674.43,1277.1 1657.74,1284.77C1641.34,1292.31 1612.63,1290.85 1603.61,1284.77C1594.59,1278.69 1600.06,1257.9 1603.61,1248.27C1607.08,1238.86 1615.44,1230.38 1624.88,1227C1634.78,1223.45 1656.63,1234.01 1662.98,1227C1669.33,1219.98 1656.66,1197.43 1662.98,1184.9C1670.12,1170.75 1698.7,1156.09 1705.84,1142.04C1712.1,1129.73 1698.35,1112.21 1705.84,1100.6C1718.4,1081.13 1759.1,1037.8 1781.21,1025.23C1797.82,1015.8 1822.29,1018.55 1838.53,1025.23C1854.76,1031.92 1860.81,1059.02 1878.63,1065.34C1897.49,1072.02 1935.37,1069.49 1951.7,1065.34C1963.08,1062.44 1976.62,1040.42 1976.62,1040.42C2065.28,1132.25 2127.66,1249.64 2151.56,1380.4ZM1327.43,939.862C1329.88,945.336 1359.87,935.48 1371.61,939.862C1383.22,944.19 1393.51,956.891 1397.89,966.142C1402.06,974.947 1400.74,987.646 1397.89,995.367C1395.1,1002.93 1383.63,1004.93 1380.79,1012.47C1377.93,1020.02 1377.8,1033 1380.79,1040.68C1383.77,1048.36 1390.96,1061.98 1398.67,1058.57C1409.37,1053.83 1430.61,1019.98 1444.98,1012.26C1456.7,1005.97 1473.69,1019.45 1484.89,1012.26C1503.46,1000.35 1544.47,958.303 1556.39,940.761C1562.71,931.456 1566.47,912.015 1556.39,907.01C1486.51,872.298 1400.43,887.53 1356.88,907.01C1343.46,913.015 1324.98,934.385 1327.43,939.862Z" style="fill:rgb(141,73,37);"/>
                </g>
                <g transform="matrix(0.939093,0,0,0.939093,39.3233,40.1809)">
                    <circle cx="546.787" cy="395.143" r="188.83" style="fill:none;stroke:rgb(60,21,0);stroke-width:13.31px;"/>
                </g>
                <g transform="matrix(1.33649,0,0,1.42002,-87.1076,-72.1981)">
                    <ellipse cx="362.83" cy="215.432" rx="11.351" ry="10.684" style="fill:rgb(60,21,0);"/>
                </g>
                <g transform="matrix(1.33649,0,0,1.42002,223.162,-72.6433)">
                    <ellipse cx="362.83" cy="215.432" rx="11.351" ry="10.684" style="fill:rgb(60,21,0);"/>
                </g>
                <g transform="matrix(1.33649,0,0,1.42002,67.8046,-130.068)">
                    <ellipse cx="362.83" cy="215.432" rx="11.351" ry="10.684" style="fill:rgb(60,21,0);"/>
                </g>
                <g transform="matrix(1,0,0,1,0.445177,1.33545)">
                    <rect x="548.235" y="186.942" width="8.903" height="44.96" style="fill:rgb(60,21,0);"/>
                </g>
                <g transform="matrix(0.710727,-0.703468,0.703468,0.710727,-119.209,498.789)">
                    <rect x="548.235" y="186.942" width="8.903" height="44.96" style="fill:rgb(60,21,0);"/>
                </g>
                <g transform="matrix(0.706209,0.708003,-0.708003,0.706209,442.41,-279.921)">
                    <rect x="548.235" y="186.942" width="8.903" height="44.96" style="fill:rgb(60,21,0);"/>
                </g>
                <path d="M553.132,233.238C381.298,329.566 398.072,557.577 554.022,590.693" style="fill:none;stroke:rgb(60,21,0);stroke-width:8.33px;"/>
                <g transform="matrix(-1,0,0,1,1103.59,0)">
                    <path d="M553.132,233.238C381.298,329.566 398.072,557.577 554.022,590.693" style="fill:none;stroke:rgb(60,21,0);stroke-width:8.33px;"/>
                </g>
                <path d="M554.022,234.128C507.107,346.795 507.306,602.075 554.022,588.913" style="fill:none;stroke:rgb(60,21,0);stroke-width:8.33px;"/>
                <path d="M552.686,232.793C570.044,352.441 575.126,522.536 552.686,590.248" style="fill:none;stroke:rgb(60,21,0);stroke-width:8.33px;"/>
                <path d="M437.838,274.192C513.08,329.474 588.88,331.681 665.309,274.192" style="fill:none;stroke:rgb(60,21,0);stroke-width:8.33px;"/>
                <path d="M404.897,316.036C463.775,377.337 625.276,390.802 699.586,316.036" style="fill:none;stroke:rgb(60,21,0);stroke-width:8.33px;"/>
                <path d="M382.639,465.161C474.415,547.82 635.41,545.131 721.843,465.161" style="fill:none;stroke:rgb(60,21,0);stroke-width:8.33px;"/>
                <path d="M377.297,410.853C477.601,488.469 538.595,494.71 671.096,455.813" style="fill:none;stroke:rgb(60,21,0);stroke-width:8.33px;"/>
                <g transform="matrix(1.02507,0,0,1.4691,-8.30005,-186.24)">
                    <path d="M376.462,400.282C376.462,402.168 374.266,403.7 371.562,403.7L276.519,403.7C273.815,403.7 271.62,402.168 271.62,400.282C271.62,398.395 273.815,396.863 276.519,396.863L371.562,396.863C374.266,396.863 376.462,398.395 376.462,400.282Z" style="fill:rgb(60,21,0);"/>
                </g>
                <g transform="matrix(-1.72699e-17,0.282038,-1.4691,-8.99561e-17,1141.17,510.07)">
                    <path d="M376.462,400.282C376.462,402.168 368.482,403.7 358.654,403.7L289.428,403.7C279.599,403.7 271.62,402.168 271.62,400.282C271.62,398.395 279.599,396.863 289.428,396.863L358.654,396.863C368.482,396.863 376.462,398.395 376.462,400.282Z" style="fill:rgb(60,21,0);"/>
                </g>
                <g transform="matrix(0.33288,-0.306338,0.994816,1.08101,-91.2296,217.792)">
                    <path d="M376.462,400.282C376.462,402.168 371.487,403.7 365.359,403.7L282.722,403.7C276.595,403.7 271.62,402.168 271.62,400.282C271.62,398.395 276.595,396.863 282.722,396.863L365.359,396.863C371.487,396.863 376.462,398.395 376.462,400.282Z" style="fill:rgb(60,21,0);"/>
                </g>
                <g transform="matrix(-0.33288,-0.306338,-0.994816,1.08101,1197.8,218.682)">
                    <path d="M376.462,400.282C376.462,402.168 371.487,403.7 365.359,403.7L282.722,403.7C276.595,403.7 271.62,402.168 271.62,400.282C271.62,398.395 276.595,396.863 282.722,396.863L365.359,396.863C371.487,396.863 376.462,398.395 376.462,400.282Z" style="fill:rgb(60,21,0);"/>
                </g>
                <g transform="matrix(1.02507,0,0,1.4691,449.7,-186.24)">
                    <path d="M376.462,400.282C376.462,402.168 374.266,403.7 371.562,403.7L276.519,403.7C273.815,403.7 271.62,402.168 271.62,400.282C271.62,398.395 273.815,396.863 276.519,396.863L371.562,396.863C374.266,396.863 376.462,398.395 376.462,400.282Z" style="fill:rgb(60,21,0);"/>
                </g>
                <g transform="matrix(0.152449,0,0,1.4691,800.722,-186.24)">
                    <path d="M376.462,400.282C376.462,402.168 361.699,403.7 343.516,403.7L304.565,403.7C286.382,403.7 271.62,402.168 271.62,400.282C271.62,398.395 286.382,396.863 304.565,396.863L343.516,396.863C361.699,396.863 376.462,398.395 376.462,400.282Z" style="fill:rgb(60,21,0);"/>
                </g>
                <g transform="matrix(0.152449,0,0,1.4691,205.722,-186.24)">
                    <path d="M376.462,400.282C376.462,402.168 361.699,403.7 343.516,403.7L304.565,403.7C286.382,403.7 271.62,402.168 271.62,400.282C271.62,398.395 286.382,396.863 304.565,396.863L343.516,396.863C361.699,396.863 376.462,398.395 376.462,400.282Z" style="fill:rgb(60,21,0);"/>
                </g>
            </g>
            <g transform="matrix(1,0,0,1,39,8.60768)">
                <g transform="matrix(45.8333,0,0,45.8333,1253.3,1218.5)">
                    <path d="M0.528,-0.267L0.528,-0.183C0.489,-0.154 0.445,-0.137 0.396,-0.137C0.278,-0.137 0.197,-0.224 0.197,-0.35C0.197,-0.476 0.278,-0.563 0.396,-0.563C0.445,-0.563 0.491,-0.544 0.529,-0.514C0.536,-0.509 0.543,-0.506 0.55,-0.506C0.56,-0.506 0.57,-0.511 0.579,-0.518L0.641,-0.568C0.653,-0.578 0.659,-0.588 0.659,-0.598C0.659,-0.6 0.659,-0.603 0.658,-0.605C0.654,-0.621 0.632,-0.638 0.616,-0.649C0.551,-0.691 0.474,-0.712 0.396,-0.712C0.176,-0.712 0.027,-0.559 0.027,-0.35C0.027,-0.141 0.176,0.012 0.396,0.012C0.461,0.012 0.526,-0.001 0.584,-0.032C0.614,-0.047 0.644,-0.066 0.667,-0.091C0.688,-0.114 0.689,-0.135 0.689,-0.165L0.689,-0.358C0.689,-0.387 0.676,-0.4 0.647,-0.4L0.402,-0.4C0.373,-0.4 0.36,-0.387 0.36,-0.358L0.36,-0.309C0.36,-0.28 0.373,-0.267 0.402,-0.267L0.528,-0.267Z" style="fill:rgb(141,73,37);fill-rule:nonzero;"/>
                </g>
                <g transform="matrix(45.8333,0,0,45.8333,1286.21,1218.5)">
                    <path d="M0.22,-0.114L0.525,-0.113L0.555,-0.034C0.565,-0.008 0.576,-0 0.604,-0L0.698,-0C0.717,-0 0.729,-0.01 0.729,-0.026C0.729,-0.031 0.728,-0.036 0.726,-0.042L0.47,-0.666C0.459,-0.692 0.447,-0.7 0.419,-0.7L0.326,-0.7C0.298,-0.7 0.286,-0.692 0.275,-0.666L0.019,-0.042C0.016,-0.036 0.015,-0.03 0.015,-0.025C0.015,-0.01 0.026,-0 0.047,-0L0.141,-0C0.168,-0 0.18,-0.008 0.19,-0.034L0.22,-0.114ZM0.473,-0.256L0.272,-0.256L0.372,-0.517L0.473,-0.256Z" style="fill:rgb(141,73,37);fill-rule:nonzero;"/>
                </g>
                <g transform="matrix(45.8333,0,0,45.8333,1320.35,1218.5)">
                    <path d="M0.242,-0.143L0.242,-0.658C0.242,-0.687 0.229,-0.7 0.2,-0.7L0.119,-0.7C0.09,-0.7 0.077,-0.687 0.077,-0.658L0.077,-0.042C0.077,-0.013 0.09,-0 0.119,-0L0.51,-0C0.539,-0 0.552,-0.013 0.552,-0.042L0.552,-0.101C0.552,-0.13 0.539,-0.143 0.51,-0.143L0.242,-0.143Z" style="fill:rgb(141,73,37);fill-rule:nonzero;"/>
                </g>
                <g transform="matrix(45.8333,0,0,45.8333,1346.43,1218.5)">
                    <path d="M0.239,-0.561L0.535,-0.561C0.564,-0.561 0.577,-0.574 0.577,-0.603L0.577,-0.658C0.577,-0.687 0.564,-0.7 0.535,-0.7L0.119,-0.7C0.09,-0.7 0.077,-0.687 0.077,-0.658L0.077,-0.042C0.077,-0.013 0.09,-0 0.119,-0L0.545,-0C0.574,-0 0.587,-0.013 0.587,-0.042L0.587,-0.097C0.587,-0.126 0.574,-0.139 0.545,-0.139L0.239,-0.139L0.239,-0.28L0.46,-0.28C0.489,-0.28 0.502,-0.293 0.502,-0.322L0.502,-0.373C0.502,-0.402 0.489,-0.415 0.46,-0.415L0.239,-0.415L0.239,-0.561Z" style="fill:rgb(141,73,37);fill-rule:nonzero;"/>
                </g>
                <g transform="matrix(45.8333,0,0,45.8333,1374.71,1218.5)">
                    <path d="M0.46,-0.032C0.473,-0.007 0.485,-0 0.513,-0L0.609,-0C0.627,-0 0.637,-0.01 0.637,-0.023C0.637,-0.028 0.636,-0.033 0.633,-0.039L0.511,-0.265C0.597,-0.301 0.64,-0.38 0.64,-0.474C0.64,-0.664 0.471,-0.7 0.341,-0.7L0.119,-0.7C0.09,-0.7 0.077,-0.687 0.077,-0.658L0.077,-0.042C0.077,-0.013 0.09,-0 0.119,-0L0.2,-0C0.229,-0 0.242,-0.013 0.242,-0.042L0.242,-0.233L0.32,-0.233C0.332,-0.233 0.342,-0.233 0.353,-0.234L0.46,-0.032ZM0.242,-0.357L0.242,-0.564L0.355,-0.564C0.424,-0.564 0.481,-0.535 0.481,-0.458C0.481,-0.385 0.424,-0.357 0.355,-0.357L0.242,-0.357Z" style="fill:rgb(141,73,37);fill-rule:nonzero;"/>
                </g>
                <g transform="matrix(45.8333,0,0,45.8333,1406.01,1218.5)">
                    <path d="M0.242,-0.658C0.242,-0.687 0.229,-0.7 0.2,-0.7L0.119,-0.7C0.09,-0.7 0.077,-0.687 0.077,-0.658L0.077,-0.042C0.077,-0.013 0.09,-0 0.119,-0L0.2,-0C0.229,-0 0.242,-0.013 0.242,-0.042L0.242,-0.658Z" style="fill:rgb(141,73,37);fill-rule:nonzero;"/>
                </g>
                <g transform="matrix(45.8333,0,0,45.8333,1419.76,1218.5)">
                    <path d="M0.22,-0.114L0.525,-0.113L0.555,-0.034C0.565,-0.008 0.576,-0 0.604,-0L0.698,-0C0.717,-0 0.729,-0.01 0.729,-0.026C0.729,-0.031 0.728,-0.036 0.726,-0.042L0.47,-0.666C0.459,-0.692 0.447,-0.7 0.419,-0.7L0.326,-0.7C0.298,-0.7 0.286,-0.692 0.275,-0.666L0.019,-0.042C0.016,-0.036 0.015,-0.03 0.015,-0.025C0.015,-0.01 0.026,-0 0.047,-0L0.141,-0C0.168,-0 0.18,-0.008 0.19,-0.034L0.22,-0.114ZM0.473,-0.256L0.272,-0.256L0.372,-0.517L0.473,-0.256Z" style="fill:rgb(141,73,37);fill-rule:nonzero;"/>
                </g>
                <g transform="matrix(45.8333,0,0,45.8333,1464.82,1218.5)">
                    <path d="M0.461,-0.311L0.281,-0.668C0.269,-0.693 0.257,-0.7 0.229,-0.7L0.119,-0.7C0.09,-0.7 0.077,-0.687 0.077,-0.658L0.077,-0.042C0.077,-0.013 0.09,-0 0.119,-0L0.2,-0C0.229,-0 0.242,-0.013 0.242,-0.042L0.242,-0.437L0.369,-0.141C0.38,-0.116 0.391,-0.108 0.419,-0.108L0.504,-0.108C0.532,-0.108 0.543,-0.116 0.554,-0.141L0.681,-0.437L0.681,-0.042C0.681,-0.013 0.694,-0 0.723,-0L0.804,-0C0.833,-0 0.846,-0.013 0.846,-0.042L0.846,-0.658C0.846,-0.687 0.833,-0.7 0.804,-0.7L0.694,-0.7C0.666,-0.7 0.654,-0.693 0.641,-0.668L0.461,-0.311Z" style="fill:rgb(141,73,37);fill-rule:nonzero;"/>
                </g>
                <g transform="matrix(45.8333,0,0,45.8333,1507.12,1218.5)">
                    <path d="M0.232,-0.658C0.232,-0.687 0.219,-0.7 0.19,-0.7L0.109,-0.7C0.08,-0.7 0.067,-0.687 0.067,-0.658L0.067,-0.29C0.067,-0.116 0.182,0.012 0.392,0.012C0.603,0.012 0.718,-0.114 0.718,-0.29L0.718,-0.658C0.718,-0.687 0.705,-0.7 0.675,-0.7L0.595,-0.7C0.566,-0.7 0.553,-0.687 0.553,-0.658L0.553,-0.295C0.553,-0.211 0.5,-0.141 0.392,-0.141C0.284,-0.141 0.232,-0.211 0.232,-0.295L0.232,-0.658Z" style="fill:rgb(141,73,37);fill-rule:nonzero;"/>
                </g>
                <g transform="matrix(45.8333,0,0,45.8333,1543.1,1218.5)">
                    <path d="M0.537,-0.263L0.268,-0.669C0.251,-0.694 0.239,-0.7 0.209,-0.7L0.119,-0.7C0.09,-0.7 0.077,-0.687 0.077,-0.658L0.077,-0.042C0.077,-0.013 0.09,-0 0.119,-0L0.2,-0C0.229,-0 0.242,-0.013 0.242,-0.042L0.242,-0.437L0.511,-0.031C0.528,-0.006 0.54,-0 0.57,-0L0.66,-0C0.689,-0 0.702,-0.013 0.702,-0.042L0.702,-0.658C0.702,-0.687 0.689,-0.7 0.66,-0.7L0.579,-0.7C0.55,-0.7 0.537,-0.687 0.537,-0.658L0.537,-0.263Z" style="fill:rgb(141,73,37);fill-rule:nonzero;"/>
                </g>
                <g transform="matrix(45.8333,0,0,45.8333,1578.81,1218.5)">
                    <path d="M0.362,-0C0.595,-0 0.741,-0.135 0.741,-0.35C0.741,-0.565 0.595,-0.7 0.362,-0.7L0.119,-0.7C0.09,-0.7 0.077,-0.687 0.077,-0.658L0.077,-0.042C0.077,-0.013 0.09,-0 0.119,-0L0.362,-0ZM0.242,-0.557L0.367,-0.557C0.495,-0.557 0.571,-0.474 0.571,-0.35C0.571,-0.226 0.495,-0.143 0.367,-0.143L0.242,-0.143L0.242,-0.557Z" style="fill:rgb(141,73,37);fill-rule:nonzero;"/>
                </g>
                <g transform="matrix(45.8333,0,0,45.8333,1614.46,1218.5)">
                    <path d="M0.242,-0.658C0.242,-0.687 0.229,-0.7 0.2,-0.7L0.119,-0.7C0.09,-0.7 0.077,-0.687 0.077,-0.658L0.077,-0.042C0.077,-0.013 0.09,-0 0.119,-0L0.2,-0C0.229,-0 0.242,-0.013 0.242,-0.042L0.242,-0.658Z" style="fill:rgb(141,73,37);fill-rule:nonzero;"/>
                </g>
            </g>
        </g>
    </g>
</svg>
